<svg width="80" height="100" viewBox="0 0 80 100" fill="none" xmlns="http://www.w3.org/2000/svg">
<mask id="mask0_2662_92384" style="mask-type:alpha" maskUnits="userSpaceOnUse" x="0" y="0" width="80" height="80">
<rect width="80" height="80" rx="16" fill="#EFB0B0"/>
</mask>
<g mask="url(#mask0_2662_92384)">
<rect width="80" height="80" fill="#6000FF"/>
<path d="M32.9193 17.1255L28.9643 28.3595C28.942 28.4225 28.9329 28.4894 28.9373 28.556C28.9417 28.6227 28.9596 28.6877 28.9899 28.7472L32.684 36.0111L22.5337 41.7674C22.5042 41.7841 22.4717 41.7946 22.438 41.7982C22.4043 41.8018 22.3702 41.7984 22.3379 41.7882C22.3056 41.7781 22.2757 41.7614 22.2501 41.7393C22.2245 41.7171 22.2037 41.6898 22.189 41.6593L19.9939 37.0853C19.9571 37.0086 19.9407 36.9237 19.9464 36.8388C19.9521 36.7539 19.9796 36.6719 20.0263 36.6008L32.8316 17.0812C32.8385 17.0714 32.8486 17.0645 32.8602 17.0616C32.8717 17.0587 32.884 17.06 32.8946 17.0654C32.9053 17.0707 32.9136 17.0798 32.9182 17.0908C32.9227 17.1019 32.9231 17.1142 32.9193 17.1255Z" fill="#D6D6DA"/>
<path d="M52.7962 32.1743L61.2034 50.1023C61.2471 50.1954 61.2605 50.2998 61.242 50.401C61.2234 50.5021 61.1738 50.5951 61.1 50.6666L38.9936 72.0437C38.9586 72.0774 38.9147 72.1002 38.8669 72.1091C38.8192 72.118 38.7699 72.1126 38.7252 72.0937C38.6805 72.0747 38.6424 72.043 38.6155 72.0025C38.5887 71.962 38.5743 71.9145 38.5742 71.8659V52.2123L52.5127 38.7491C52.56 38.7034 52.5976 38.6488 52.6236 38.5883C52.6495 38.5278 52.6631 38.4629 52.6636 38.3971L52.702 32.1943C52.7024 32.1832 52.7065 32.1727 52.7136 32.1643C52.7207 32.1558 52.7304 32.1499 52.7413 32.1476C52.7521 32.1453 52.7634 32.1466 52.7733 32.1514C52.7833 32.1563 52.7913 32.1644 52.7962 32.1743Z" fill="#D6D6DA"/>
<path d="M32.6829 36.0098L20.6211 38.3937L22.1888 41.6605C22.2035 41.6911 22.2243 41.7183 22.2499 41.7405C22.2755 41.7627 22.3055 41.7794 22.3378 41.7896C22.3702 41.7997 22.4043 41.8031 22.438 41.7995C22.4717 41.7959 22.5043 41.7852 22.5338 41.7685L32.6837 36.0122L32.6829 36.0098Z" fill="#B4B4BA"/>
<path d="M28.9363 28.4923L19.9688 36.7192C19.9823 36.6778 20.0013 36.6383 20.0251 36.6018L32.8305 17.0822C32.8348 17.0753 32.8408 17.0696 32.8479 17.0656C32.8549 17.0617 32.8629 17.0596 32.871 17.0596C32.8791 17.0594 32.8871 17.0612 32.8944 17.0648C32.9016 17.0683 32.9079 17.0736 32.9126 17.0802C32.9173 17.0867 32.9204 17.0944 32.9215 17.1024C32.9226 17.1104 32.9217 17.1186 32.919 17.1262L28.9634 28.3599C28.9483 28.4026 28.9392 28.4471 28.9363 28.4923Z" fill="white"/>
<path d="M46.6332 44.4287L38.5742 63.3029V52.2137L46.6332 44.4287Z" fill="#B4B4BA"/>
<path d="M61.2407 50.4085L52.5918 38.65C52.6383 38.5735 52.6631 38.4857 52.6634 38.3961L52.7019 32.1937C52.7019 32.1872 52.703 32.1808 52.7055 32.1749C52.7079 32.1689 52.7116 32.1634 52.7162 32.1589C52.7208 32.1543 52.7265 32.1506 52.7325 32.1481C52.7385 32.1457 52.7447 32.1445 52.7512 32.1445C52.7606 32.1443 52.7699 32.147 52.7779 32.152C52.7858 32.157 52.7922 32.1642 52.796 32.1728L61.2033 50.101C61.2486 50.1968 61.2617 50.3046 61.2407 50.4085Z" fill="white"/>
<path d="M38.7589 8.0301L48.0935 30.9217C48.1182 30.9821 48.1306 31.0468 48.1301 31.1121C48.1296 31.1775 48.1161 31.242 48.0904 31.302L33.0124 66.6161C32.9967 66.6529 32.9722 66.6854 32.9411 66.7107C32.91 66.736 32.8732 66.7533 32.834 66.7612C32.7947 66.7691 32.7541 66.7674 32.7157 66.7561C32.6772 66.7448 32.6421 66.7244 32.6133 66.6965L18.7445 53.2853C18.6584 53.2021 18.6054 53.0904 18.5955 52.971C18.5855 52.8516 18.6192 52.7326 18.6904 52.6363L38.4726 25.8079C38.5351 25.723 38.5689 25.6202 38.569 25.5147V8.06594C38.5696 8.04335 38.5779 8.02165 38.5926 8.00446C38.6073 7.98727 38.6274 7.97562 38.6495 7.97144C38.6717 7.96725 38.6947 7.97079 38.7146 7.98146C38.7345 7.99213 38.7501 8.00929 38.7589 8.0301Z" fill="url(#paint0_linear_2662_92384)"/>
<path d="M38.5469 25.6616L48.13 31.0855C48.1274 31.029 48.1152 30.9734 48.094 30.921L38.7594 8.0303C38.7523 8.01199 38.74 7.99627 38.7237 7.98527C38.7075 7.97427 38.6883 7.96852 38.6687 7.96878C38.6556 7.96844 38.6426 7.97076 38.6304 7.97559C38.6182 7.98042 38.6071 7.98766 38.5978 7.99689C38.5885 8.00612 38.5813 8.01713 38.5763 8.02928C38.5714 8.04142 38.5689 8.05444 38.5692 8.06754V25.5144C38.5693 25.5643 38.5617 25.614 38.5469 25.6616Z" fill="white"/>
</g>
<path fill-rule="evenodd" clip-rule="evenodd" d="M14.0395 99.999H11.59L10.2667 97.3146H4.28071L2.95741 99.999H0L6.04395 88.0003H8.56318C10.5846 91.9994 12.6047 95.999 14.6234 99.999H14.0395ZM7.2726 91.2586L5.47632 94.8798H9.05658L7.2718 91.2586H7.2726ZM18.405 99.999H16.1319V88.0003H18.8542L23.6514 95.1763L28.4056 88.0003H31.1125V99.999H28.4907V92.2884L24.7038 98.0865H22.5559L18.7534 92.3553V100H18.405V99.999ZM42.4374 99.999H34.4352V88.0003H42.2114C43.368 88.0003 44.3122 88.2953 44.9739 88.8409C45.316 89.1211 45.5905 89.4846 45.7747 89.9011C45.9589 90.3177 46.0474 90.7752 46.0329 91.2357C46.0428 91.7345 45.9331 92.2276 45.7142 92.6682C45.4952 93.1087 45.1744 93.482 44.7823 93.7523C45.1779 93.9452 45.5319 94.2234 45.8221 94.5694C46.2726 95.1235 46.514 95.8371 46.4993 96.5711C46.4993 97.6544 46.1173 98.5224 45.3896 99.1205C44.6982 99.6887 43.7023 99.9979 42.4365 99.9979L42.4374 99.999ZM42.9726 90.681C42.7275 90.4752 42.3445 90.3687 41.8361 90.3687H37.1479V92.7411H41.8513C42.2442 92.7657 42.633 92.6452 42.9527 92.3997C43.0701 92.292 43.1631 92.1571 43.2245 92.0052C43.2858 91.8534 43.314 91.6886 43.3069 91.5233C43.317 91.3647 43.2921 91.2059 43.2342 91.0595C43.1763 90.9131 43.0871 90.7833 42.9736 90.6807L42.9726 90.681ZM43.3004 95.4787C43.0188 95.2463 42.586 95.1275 42.0307 95.1275H37.1479V97.6293H42.0763C42.6489 97.6293 43.0627 97.5156 43.324 97.3026C43.4462 97.1953 43.5424 97.0582 43.6047 96.9028C43.667 96.7475 43.6936 96.5784 43.682 96.4098C43.6921 96.2334 43.6628 96.0569 43.5964 95.895C43.53 95.7331 43.4286 95.5904 43.3004 95.4787ZM51.448 99.999H49.0405V88.0003H51.7983V99.999H51.4498H51.448ZM57.5274 99.999H55.1199V88.0003H62.4002C63.7149 88.0003 64.7443 88.3598 65.4558 89.0171C66.196 89.6998 66.5827 90.687 66.5827 91.9104C66.5827 93.0183 66.2371 93.9334 65.5839 94.5979C65.0196 95.1436 64.3189 95.5019 63.5674 95.6289L67.3631 99.9997H63.8423L60.2792 95.8693H57.8776V99.9997H57.529L57.5274 99.999ZM63.416 90.8363C63.1259 90.5803 62.6701 90.4494 62.0544 90.4494H57.8776V93.4175H62.0544C62.6586 93.4175 63.1164 93.2843 63.4113 93.0275C63.6826 92.7899 63.8263 92.4255 63.8263 91.9421C63.8263 91.4472 63.6884 91.0749 63.4175 90.8363H63.416ZM79.6512 99.9986H69.2595V88H79.895V90.4501H71.9708V92.6626H79.0528V95.0963H71.9708V97.5494H80V99.9995H79.6514L79.6512 99.9986Z" fill="white"/>
<defs>
<linearGradient id="paint0_linear_2662_92384" x1="38.8557" y1="9.32204" x2="17.445" y2="60.3333" gradientUnits="userSpaceOnUse">
<stop stop-color="#BBBBBF"/>
<stop offset="0.671" stop-color="#DBDBDF"/>
<stop offset="1" stop-color="white"/>
</linearGradient>
</defs>
</svg>
